<?xml version="1.0" encoding="UTF-8"?>
<svg id="Calque_2" data-name="Calque 2" xmlns="http://www.w3.org/2000/svg" viewBox="0 0 104.27 104.92">
  <defs>
    <style>
      .cls-1 {
        fill: #ea6416;
      }

      .cls-2 {
        fill: #023959;
      }
    </style>
  </defs>
  <g id="Calque_9" data-name="Calque 9">
    <g>
      <path class="cls-2" d="M62.95,12.22c2.49.09,8.87,4.41,10.55,4.42,2.14,0,7.21-6.55,9.05-6.39.68.06,1.89.95,2.47,1.41,1.17.92,9.06,8.67,9.57,9.55.65,1.12.57,2,.08,3.17-.77,1.85-5.1,5.21-5.98,7.07-.78,1.67,1.01,2.97,1.61,4.47.48,1.21,1.83,6.2,2.52,6.61,2.52.53,9.82-.42,11.08,2.39.4.88.45,12.99.25,14.57-.55,4.16-8.61,2.89-11.69,3.3l-4.2,10.33c.87,4.96,9.53,7.24,5.45,12.43-1.25,1.6-7.32,7.41-8.92,8.47-4.81,3.17-8.08-5.25-11.37-5.56-.52-.05-9.28,3.74-9.69,4.06-2.38,1.92.52,12.9-4.57,12.37-.8-.08-7.12-7.21-8.48-8.49-10.4-9.81-22.68-17.56-35.24-24.3-1.62-1.68-2.32-7.95-3.7-8.9-3.02-2.09-10.89,1.48-11.49-3.72-.34-2.92-.34-10.58,0-13.49.14-1.19.47-2.23,1.72-2.63,1.84-.59,9.6-.28,10.24-1.05-.04-2.26,3.83-8.76,3.69-10.19-.16-1.65-4.56-5.43-5.66-6.97-2.07-2.91-.59-3.91,1.64-5.94,2.92-2.67,5.41-5.76,8.37-8.4,3.44-1.88,8.53,6.42,11,6.2,1.79-.16,8.31-4.47,10.75-4.97,1.79-3.65-1.25-11.27,4.08-11.89,2.3-.27,12.93-.25,14.54.68,2.35,1.36.88,8.94,2.3,11.39ZM52.94,69.37c.46-.31,5.91-.95,8.47-2.64,15.91-10.49,4.86-36.23-13.69-30.64-16.88,5.09-15.83,29.39,1.47,33.12"/>
      <path class="cls-1" d="M59.15,26.33c1.62.06,5.76,2.87,6.85,2.87,1.39,0,4.68-4.25,5.88-4.15.44.04,1.23.62,1.61.92.76.59,5.89,5.63,6.22,6.2.42.73.37,1.3.05,2.06-.5,1.2-3.31,3.39-3.88,4.59-.51,1.09.66,1.93,1.05,2.9.31.79,1.19,4.03,1.63,4.29,1.64.34,6.37-.27,7.2,1.55.26.57.29,8.44.16,9.46-.35,2.7-5.59,1.88-7.59,2.14l-2.73,6.71c.56,3.22,6.19,4.7,3.54,8.07-.81,1.04-4.75,4.81-5.79,5.5-3.13,2.06-5.25-3.41-7.38-3.61-.34-.03-6.02,2.43-6.29,2.64-1.55,1.25.34,8.38-2.97,8.03-.52-.05-4.62-4.68-5.51-5.51-6.75-6.37-14.73-11.4-22.88-15.78-1.05-1.09-1.51-5.16-2.4-5.78-1.96-1.36-7.07.96-7.46-2.41-.22-1.89-.22-6.87,0-8.76.09-.77.31-1.45,1.12-1.7,1.2-.38,6.24-.18,6.65-.68-.02-1.47,2.48-5.69,2.4-6.62-.1-1.07-2.96-3.53-3.67-4.53-1.35-1.89-.38-2.54,1.06-3.86,1.89-1.74,3.52-3.74,5.44-5.45,2.23-1.22,5.54,4.17,7.14,4.02,1.16-.1,5.39-2.9,6.98-3.23,1.16-2.37-.81-7.32,2.65-7.72,1.49-.17,8.4-.16,9.44.44,1.53.88.57,5.81,1.49,7.4ZM52.65,63.44c.3-.2,3.84-.62,5.5-1.71,10.33-6.81,3.16-23.53-8.89-19.89-10.96,3.3-10.28,19.09.95,21.51"/>
    </g>
  </g>
</svg>