<?xml version="1.0" encoding="UTF-8"?>
<svg id="Calque_9" data-name="Calque 9" xmlns="http://www.w3.org/2000/svg" viewBox="0 0 1024 1024">
  <defs>
    <style>
      .cls-1 {
        fill: #ea6416;
      }

      .cls-2 {
        fill: #023959;
      }
    </style>
  </defs>
  <g>
    <path class="cls-2" d="M517.3,222.5c10.9.4,38.79,19.3,46.12,19.32,9.38.03,31.52-28.64,39.59-27.95,2.99.26,8.26,4.17,10.82,6.18,5.11,4,39.65,37.93,41.86,41.75,2.83,4.89,2.49,8.76.36,13.88-3.36,8.08-22.32,22.8-26.13,30.94-3.43,7.32,4.43,13.01,7.04,19.54,2.11,5.29,8.01,27.11,11.01,28.91,11.02,2.32,42.94-1.84,48.47,10.45,1.73,3.85,1.99,56.82,1.08,63.74-2.39,18.17-37.64,12.65-51.15,14.42l-18.37,45.2c3.8,21.67,41.7,31.65,23.85,54.36-5.48,6.98-32,32.42-38.99,37.03-21.06,13.87-35.35-22.98-49.72-24.32-2.29-.21-40.57,16.34-42.36,17.78-10.43,8.39,2.28,56.43-20.01,54.1-3.49-.36-31.15-31.52-37.1-37.14-45.49-42.9-99.18-76.81-154.11-106.28-7.07-7.36-10.17-34.77-16.18-38.94-13.21-9.15-47.63,6.48-50.26-16.26-1.48-12.76-1.49-46.27,0-59,.61-5.19,2.07-9.74,7.52-11.48,8.06-2.57,42.01-1.24,44.81-4.61-.16-9.89,16.74-38.32,16.14-44.58-.69-7.23-19.95-23.77-24.73-30.49-9.07-12.73-2.58-17.09,7.15-26,12.75-11.69,23.68-25.21,36.61-36.72,15.03-8.2,37.29,28.08,48.12,27.11,7.82-.7,36.33-19.53,47.03-21.76,7.82-15.96-5.48-49.28,17.87-51.99,10.06-1.17,56.56-1.08,63.61,2.99,10.29,5.94,3.83,39.1,10.05,49.82ZM473.52,472.44c2.01-1.35,25.86-4.16,37.05-11.54,69.58-45.87,21.28-158.45-59.86-133.99-73.81,22.25-69.25,128.54,6.42,144.87"/>
    <path class="cls-1" d="M500.72,284.21c7.08.26,25.19,12.53,29.95,12.55,6.09.02,20.47-18.6,25.71-18.15,1.94.17,5.36,2.71,7.02,4.01,3.32,2.6,25.75,24.63,27.18,27.11,1.84,3.17,1.62,5.69.23,9.02-2.18,5.25-14.49,14.81-16.97,20.09-2.23,4.75,2.88,8.45,4.57,12.69,1.37,3.44,5.2,17.6,7.15,18.77,7.16,1.51,27.88-1.2,31.48,6.79,1.13,2.5,1.29,36.9.7,41.39-1.55,11.8-24.44,8.22-33.21,9.37l-11.93,29.35c2.47,14.07,27.08,20.55,15.49,35.3-3.56,4.53-20.78,21.05-25.32,24.05-13.67,9.01-22.96-14.92-32.29-15.79-1.49-.14-26.35,10.61-27.51,11.54-6.77,5.45,1.48,36.64-12.99,35.13-2.26-.24-20.23-20.47-24.09-24.12-29.54-27.86-64.41-49.88-100.07-69.02-4.59-4.78-6.6-22.58-10.51-25.29-8.58-5.94-30.93,4.21-32.64-10.56-.96-8.29-.97-30.04,0-38.31.4-3.37,1.34-6.33,4.89-7.46,5.24-1.67,27.28-.8,29.1-2.99-.1-6.42,10.87-24.89,10.48-28.95-.45-4.7-12.95-15.44-16.06-19.8-5.89-8.27-1.67-11.1,4.65-16.88,8.28-7.59,15.38-16.37,23.77-23.85,9.76-5.33,24.21,18.23,31.25,17.6,5.08-.46,23.59-12.68,30.54-14.13,5.08-10.36-3.56-32,11.6-33.76,6.53-.76,36.73-.7,41.31,1.94,6.68,3.86,2.49,25.39,6.53,32.35ZM472.29,446.51c1.3-.88,16.79-2.7,24.06-7.49,45.18-29.78,13.82-102.89-38.87-87.01-47.93,14.45-44.97,83.47,4.17,94.08"/>
  </g>
  <path class="cls-1" d="M16.89,397.44c26.82,7.51,54.01,15.02,80.33,24.16,80.24,27.86,173.04,73.46,242.43,122.74,68.79,48.85,128.24,111.85,170.02,185.26,18.74-24.89,35.42-51.55,55.03-75.83,109.7-135.82,276.97-210.52,442.07-256.33-.65,48.02.92,96.18.08,144.21-.34,19.68-5.13,40.82-.05,60.34-185.73,35.98-365.23,113.71-496.06,252.96-109.05-113-249.58-189.58-400.98-230.31-23.91-6.43-48.38-12.07-72.5-17.69-3.49-.81-20.36-.74-20.36-6.04v-203.48Z"/>
  <path class="cls-2" d="M127.67,449.1c20.72,5.8,41.71,11.6,62.04,18.66,61.98,21.52,133.65,56.74,187.24,94.8,53.13,37.73,99.05,86.39,131.32,143.09,14.48-19.22,27.36-39.82,42.5-58.57,84.73-104.91,213.92-162.6,341.45-197.99-.5,37.09.71,74.29.07,111.39-.27,15.2-3.96,31.53-.04,46.61-143.45,27.79-282.1,87.83-383.15,195.38-84.23-87.28-192.77-146.43-309.71-177.89-18.47-4.97-37.37-9.32-56-13.66-2.7-.63-15.73-.57-15.73-4.66v-157.16Z"/>
</svg>